<svg xmlns="http://www.w3.org/2000/svg" width="920" height="260" viewBox="0 0 920 260" role="img" aria-labelledby="title desc">
  <title id="title">lovelace-m3-lighting-dashboard header</title>
  <desc id="desc">Stacked repository header with centered logo above centered title.</desc>
  <style>
    .title {
      font-family: -apple-system, BlinkMacSystemFont, "Segoe UI", Helvetica, Arial, sans-serif;
      font-size: 56px;
      font-weight: 700;
      letter-spacing: 0;
      text-anchor: middle;
      fill: #24292f;
    }
    @media (prefers-color-scheme: dark) {
      .title { fill: #f0f6fc; }
    }
  </style>
  <svg x="340" y="8" width="240" height="150" viewBox="0 0 62.978909 52.874161" preserveAspectRatio="xMidYMid meet">
<g
     id="layer1"
     style="display:inline"
     transform="translate(-73.55273,-108.81298)"><path
       style="display:inline;fill:#74796d;fill-opacity:1;stroke:#74796d;stroke-width:0;stroke-dasharray:none;stroke-opacity:1"
       d="m 96.122201,142.99695 0.280228,0.0406 0.265964,0.15895 0.175353,0.23218 0.113887,0.24038 0.172974,0.55861 0.05227,0.22369 0.09635,0.48333 0.108444,0.64717 0.108284,0.73484 0.05077,0.34869 0.06609,0.42364 0.06693,0.40229 0.07549,0.42765 0.08243,0.43973 0.117345,0.58142 0.166034,0.7318 0.0576,0.22527 0.134779,0.44655 0.158827,0.47033 0.02397,0.085 0.0642,0.45538 -0.02974,0.18595 -0.107098,0.22179 -0.222475,0.23904 1.26624,-0.52443 0.02328,-0.6069 -0.510079,-1.66932 -0.464447,-2.23628 -0.07678,-0.46255 -0.02723,-0.66567 -0.0031,-0.46192 0.01556,-0.65266 0.04016,-0.51348 0.0748,-0.44786 0.04322,-0.13493 0.02849,-0.056 0.02201,-0.0278 0.04034,-0.0194 v 0 l 0.02199,0.003 0.02778,0.0134 0.03217,0.0292 0.03406,0.0486 0.02709,0.0538 0.03524,0.0953 0.03219,0.12329 0.01757,0.0914 0.01474,0.10119 0.01072,0.10249 0.0069,0.10095 0.0036,0.10287 0.0024,0.16671 0.0077,0.13809 0.0539,0.35504 0.465711,1.27151 0.160308,0.91777 0.55126,0.85632 v 0 l 1.25422,1.2798 0.81627,0.98467 1.64986,-0.67902 -1.75501,-1.3719 -1.0329,-1.02136 -0.7224,-1.60316 -0.10951,-1.03573 -0.788812,-1.12193 -3.368272,-0.52754"
       id="path60-3" /><path
       style="display:inline;fill:#74796d;fill-opacity:1;stroke:#74796d;stroke-width:0.9;stroke-dasharray:none;stroke-opacity:1"
       d="m 12.299432,68.867668 c 2.211951,0.889779 5.03968,-0.480308 7.271887,-1.230151 4.636932,-1.557638 9.440657,-2.689483 13.945675,-4.582434 6.86991,-2.886647 13.855519,-5.524054 20.506246,-8.89463 1.541132,-0.781042 3.78179,-0.836646 4.682435,-2.27515 1.201308,-1.918724 3.143256,-3.542735 3.656881,-5.733798 1.418326,-6.050408 2.017901,-12.381661 4.394628,-18.123166 1.048125,-2.531976 1.651956,-5.296792 3.057926,-7.639792 0.456472,-0.760695 1.311095,-1.942303 1.522188,-2.443591 -1.904453,1.263977 -3.372059,3.098039 -4.16155,5.292112 -0.578658,1.608148 -1.643544,2.96677 -2.245592,4.585506 -0.602387,1.619647 -1.059563,3.312591 -1.332095,5.021257 -0.377969,2.369721 -0.608256,4.81582 -1.481494,7.047444 -0.894106,2.284954 -1.736828,4.585901 -3.049466,6.680161 -1.227639,1.958648 -2.280734,4.252912 -4.185461,5.55149 -1.309935,0.893069 -2.562065,1.760874 -4.145334,2.226838 -5.188529,1.527008 -10.520379,2.623272 -15.590184,4.503965 -3.384194,1.255399 -6.87127,2.271952 -10.409812,2.9561 -2.307859,0.446206 -4.519491,1.132632 -6.717437,2.058812 -1.525257,0.642719 -2.822268,2.023341 -4.440444,2.246717 -1.046643,0.14448 -1.751435,0.322195 -2.870084,1.013144 -0.9614404,0.593847 -1.5219303,1.891797 0.216856,1.8259 0.458714,-0.01738 0.916335,-0.05488 1.374183,-0.08673"
       id="path57-7"
       transform="translate(64.201018,92.067382)" /><path
       style="display:inline;fill:#93000a;fill-opacity:1;stroke:#93000a;stroke-width:0.899999;stroke-dasharray:none;stroke-opacity:1"
       d="m 79.632241,21.578907 c 1.877648,0.68838 3.753062,0.01195 5.738472,0.09777 1.975629,0.0854 3.790318,1.262564 4.820043,3.031954 1.747898,3.003441 4.322932,5.371779 6.591343,7.963654 2.143883,2.44959 4.547701,4.70479 7.402001,6.341992 2.57701,1.478156 5.541,2.457291 8.57431,2.143476 1.45494,-0.150523 5.76215,-0.978474 4.33027,-0.68652 -1.7096,0.348581 -3.01353,1.566547 -4.11437,2.807313 -0.70044,0.789464 -0.35878,1.907795 -0.1315,2.877155 0.29527,1.259342 1.30366,4.999873 0.86669,3.782422 -0.64725,-1.803312 -2.23428,-2.851604 -3.61869,-4.081913 -1.96771,-1.74868 -4.67054,-2.408595 -7.2219,-2.458875 -3.711267,-0.07314 -7.467187,0.899085 -11.14745,-0.07893 -2.810622,-0.74691 -5.266664,-2.734448 -6.506691,-5.431193 -1.77338,-3.856655 -1.32581,-8.290407 -3.136254,-12.165345 -0.649111,-1.38931 -1.705672,-2.543918 -2.371386,-3.918897 0,0 -0.03908,-0.111482 -0.03908,-0.111482 z"
       id="path58-7"
       transform="translate(6.6890818,102.28673)" /></g>
  </svg>
  <text class="title" x="460" y="220">lovelace-m3-lighting-dashboard</text>
</svg>
